<?xml version="1.0" encoding="UTF-8" standalone="no"?>
<!-- Created with Inkscape (http://www.inkscape.org/) -->

<svg
   width="210mm"
   height="297mm"
   viewBox="0 0 210 297"
   version="1.1"
   id="svg5"
   xmlns="http://www.w3.org/2000/svg"
   xmlns:svg="http://www.w3.org/2000/svg">
  <defs
     id="defs2">
    <rect
       x="200.55247"
       y="531.38151"
       width="290.6881"
       height="64.500623"
       id="rect43224" />
    <rect
       x="235.2974"
       y="613.06844"
       width="261.2017"
       height="112.25197"
       id="rect26273" />
    <rect
       x="509.45124"
       y="496.49909"
       width="243.93216"
       height="71.236826"
       id="rect9410" />
    <rect
       x="220.18655"
       y="466.27741"
       width="382.08843"
       height="90.665051"
       id="rect3798" />
  </defs>
  <g
     id="layer1"
     transform="matrix(1.6850394,0,0,1.5656723,-33.293322,-29.310532)">
    <path
       style="fill:#e9afaf"
       id="path714"
       d="M 107.10394,110.61387 A 60.256729,58.25769 0 0 1 64.137229,166.42175 60.256729,58.25769 0 0 1 -3.4871503,142.64081 60.256729,58.25769 0 0 1 0.6713873,73.185556 L 46.84721,110.61387 Z"
       transform="rotate(-20.318881)" />
    <text
       xml:space="preserve"
       transform="matrix(0.40391756,0,0,0.46190503,-26.050889,-105.49136)"
       id="text3796"
       style="font-style:normal;font-variant:normal;font-weight:normal;font-stretch:normal;font-size:40px;line-height:1.25;font-family:'Yu Gothic UI';-inkscape-font-specification:'Yu Gothic UI';white-space:pre;shape-inside:url(#rect3798);fill:#241c1c;fill-opacity:1;stroke:none"><tspan
         x="220.1875"
         y="502.30752"
         id="tspan173">
</tspan><tspan
         x="220.1875"
         y="592.97354"
         id="tspan177"><tspan
           dx="0 35.917969 27.441406 15.996094 28.046875 20.234375"
           id="tspan175">MG-DEV</tspan></tspan></text>
    <text
       xml:space="preserve"
       transform="matrix(0.26458333,0,0,0.26458333,-3.4269231,-13.136538)"
       id="text9408"
       style="font-style:normal;font-weight:normal;font-size:40px;line-height:1.25;font-family:sans-serif;white-space:pre;shape-inside:url(#rect9410);fill:#000000;fill-opacity:1;stroke:none" />
    <rect
       style="fill:none;stroke-width:0.264583"
       id="rect12537"
       width="125.45252"
       height="100.85327"
       x="39.03978"
       y="80.202492" />
    <rect
       style="fill:none;stroke-width:0.264583"
       id="rect20480"
       width="85.101921"
       height="54.830769"
       x="19.41923"
       y="85.101921" />
    <text
       xml:space="preserve"
       transform="matrix(0.44254753,0,0,0.41600379,-32.288824,-152.13115)"
       id="text26271"
       style="font-style:normal;font-weight:normal;font-size:40px;line-height:1.25;font-family:sans-serif;white-space:pre;shape-inside:url(#rect26273);fill:#000000;fill-opacity:1;stroke:none"><tspan
         x="235.29688"
         y="649.56157"
         id="tspan181"><tspan
   style="font-family:'Segoe Script';-inkscape-font-specification:'Segoe Script'"
   id="tspan179">LMG</tspan>
</tspan><tspan
         x="235.29688"
         y="700.83696"
         id="tspan183">
</tspan></text>
    <circle
       id="path27009"
       style="fill:#000000;stroke:#000000;stroke-width:0.264583"
       cx="75.392303"
       cy="165.06345"
       r="0.076077133" />
    <circle
       id="path27011"
       style="fill:#000000;stroke:#000000;stroke-width:0.264583"
       cx="75.392303"
       cy="165.06345"
       r="0.076077133" />
    <circle
       id="path27013"
       style="fill:#000000;stroke:#000000;stroke-width:0.264583"
       cx="78.819229"
       cy="167.91922"
       r="0.076077133" />
    <circle
       id="path27015"
       style="fill:#000000;stroke:#000000;stroke-width:0.264583"
       cx="78.819229"
       cy="167.91922"
       r="0.076077133" />
    <circle
       id="path27017"
       style="fill:#000000;stroke:#000000;stroke-width:0.264583"
       cx="78.819229"
       cy="167.91922"
       r="0.076077133" />
    <circle
       id="path27019"
       style="fill:#000000;stroke:#000000;stroke-width:0.264583"
       cx="78.819229"
       cy="167.91922"
       r="0.076077133" />
    <path
       style="fill:none;stroke-width:0.264583"
       id="path27021"
       d="m 73.545771,169.69706 c 4.031392,0.34722 7.995276,1.23726 11.958423,2.02531 2.684012,0.64911 5.438737,0.87405 8.155789,1.31411 0.90348,0.12082 1.659794,0.32493 2.067933,1.17695 0,0 3.440562,-1.95571 3.440562,-1.95571 v 0 c -0.482978,-0.96491 -1.225968,-1.35833 -2.303444,-1.47147 -2.738512,-0.45102 -5.534155,-0.57329 -8.2419,-1.23818 -3.950452,-0.77679 -7.895974,-1.62965 -11.89259,-2.12773 0,0 -3.184773,2.27672 -3.184773,2.27672 z" />
    <path
       style="fill:none;stroke-width:0.264583"
       id="path37339"
       d="m 152.49808,151.10864 a 28.224091,24.806746 0 0 1 -20.73573,23.9177 28.224091,24.806746 0 0 1 -31.73886,-11.2261 28.224091,24.806746 0 0 1 3.89394,-29.87467 28.224091,24.806746 0 0 1 33.80513,-4.62648" />
    <g
       id="g37622"
       style="fill:#2b1100">
      <path
         id="path37634"
         style="fill:#e9e9ff;fill-rule:evenodd;stroke:none;stroke-linejoin:round"
         d="M 53.062841,71.013947 69.548592,41.128351 V 146.00278 l -16.485751,-5.40809 z"
         points="69.548592,41.128351 69.548592,146.00278 53.062841,140.59469 53.062841,71.013947 " />
      <path
         id="path37624"
         style="fill:#353564;fill-rule:evenodd;stroke:none;stroke-linejoin:round"
         d="m 43.407692,67.809023 v 73.365627 l 9.655149,-0.57996 V 71.013947 Z"
         points="43.407692,141.17465 53.062841,140.59469 53.062841,71.013947 43.407692,67.809023 " />
      <path
         id="path37632"
         style="fill:#afafde;fill-rule:evenodd;stroke:none;stroke-width:1.15172;stroke-linejoin:round"
         d="m 43.407692,141.17465 12.565386,6.18305 13.575514,-1.35492 -16.485751,-5.40809 z"
         points="55.973078,147.3577 69.548592,146.00278 53.062841,140.59469 43.407692,141.17465 " />
      <path
         id="path37626"
         style="fill:#4d4d9f;fill-rule:evenodd;stroke:none;stroke-linejoin:round"
         d="M 43.407692,67.809023 55.973078,33.640968 69.548592,41.128351 53.062841,71.013947 Z"
         points="55.973078,33.640968 69.548592,41.128351 53.062841,71.013947 43.407692,67.809023 " />
      <path
         id="path37630"
         style="fill:#d7d7ff;fill-rule:evenodd;stroke:none;stroke-linejoin:round"
         d="M 55.973078,33.640968 V 147.3577 l 13.575514,-1.35492 V 41.128351 Z"
         points="55.973078,147.3577 69.548592,146.00278 69.548592,41.128351 55.973078,33.640968 " />
      <path
         id="path37628"
         style="fill:#8686bf;fill-rule:evenodd;stroke:none;stroke-linejoin:round"
         d="M 43.407692,67.809023 55.973078,33.640968 V 147.3577 l -12.565386,-6.18305 z"
         points="55.973078,33.640968 55.973078,147.3577 43.407692,141.17465 43.407692,67.809023 " />
    </g>
    <g
       id="g37636"
       style="fill:#2b1100">
      <path
         id="path37648"
         style="fill:#e9e9ff;fill-rule:evenodd;stroke:none;stroke-linejoin:round"
         d="m 68.73691,126.9807 61.23716,-3.4518 v 27.3587 l -61.23716,-7.31767 z"
         points="129.97407,123.5289 129.97407,150.8876 68.73691,143.56993 68.73691,126.9807 " />
      <path
         id="path37638"
         style="fill:#353564;fill-rule:evenodd;stroke:none;stroke-linejoin:round"
         d="m 43.792791,126.43121 v 18.30363 L 68.73691,143.56993 V 126.9807 Z"
         points="43.792791,144.73484 68.73691,143.56993 68.73691,126.9807 43.792791,126.43121 " />
      <path
         id="path37646"
         style="fill:#afafde;fill-rule:evenodd;stroke:none;stroke-linejoin:round"
         d="m 43.792791,144.73484 53.272938,9.54896 32.908341,-3.3962 -61.23716,-7.31767 z"
         points="97.065729,154.2838 129.97407,150.8876 68.73691,143.56993 43.792791,144.73484 " />
      <path
         id="path37640"
         style="fill:#4d4d9f;fill-rule:evenodd;stroke:none;stroke-linejoin:round"
         d="m 43.792791,126.43121 53.272938,-4.50432 32.908341,1.60201 -61.23716,3.4518 z"
         points="97.065729,121.92689 129.97407,123.5289 68.73691,126.9807 43.792791,126.43121 " />
      <path
         id="path37644"
         style="fill:#d7d7ff;fill-rule:evenodd;stroke:none;stroke-linejoin:round"
         d="m 97.065729,121.92689 v 32.35691 l 32.908341,-3.3962 v -27.3587 z"
         points="97.065729,154.2838 129.97407,150.8876 129.97407,123.5289 97.065729,121.92689 " />
      <path
         id="path37642"
         style="fill:#8686bf;fill-rule:evenodd;stroke:none;stroke-linejoin:round"
         d="m 43.792791,126.43121 53.272938,-4.50432 v 32.35691 l -53.272938,-9.54896 z"
         points="97.065729,121.92689 97.065729,154.2838 43.792791,144.73484 43.792791,126.43121 " />
    </g>
    <path
       style="fill:none;fill-rule:evenodd;stroke:#000000"
       id="path37835"
       d="m 147.55193,303.12753 c 8.83699,6.55657 -4.47827,15.14687 -10.89745,14.68766 -17.3956,-1.24442 -23.29871,-22.41538 -18.47787,-36.48256 8.62334,-25.16287 39.60183,-32.55023 62.06767,-22.26808 32.96952,15.08948 42.03273,57.00581 26.05828,87.65278 -21.29143,40.8476 -74.48494,51.61106 -113.237886,29.8485 C 44.298051,349.17987 31.826264,284.56642 59.425969,237.74283 92.852911,181.0332 168.95965,166.84877 223.83408,200.31392 288.50169,239.75144 304.40154,327.39419 265.0532,390.30714 219.62398,462.94262 120.41811,480.55985 49.474873,435.31647 -31.135338,383.90806 -50.471374,273.12077 0.67533185,194.15303 58.054206,105.56316 180.43586,84.507228 267.42388,141.56328 c 96.57319,63.34303 119.34986,197.32853 56.37996,292.33366"
       transform="matrix(0.26458333,0,0,0.26458333,41.123077,23.988462)" />
    <path
       style="fill:#ffe6d5"
       id="path46680"
       d="m 129.97407,136.40724 a 16.45417,14.480357 0 0 1 -11.73286,13.87145 16.45417,14.480357 0 0 1 -18.466046,-5.91098 16.45417,14.480357 0 0 1 1.135676,-17.26362 l 12.60906,9.30315 z" />
    <path
       style="fill:#000000;stroke-width:0.264583"
       id="path46860"
       d="m 39.261663,153.9362 c 2.788478,-5.20911 5.579327,-10.4185 8.413094,-15.60403 2.348058,-4.05179 4.280527,-8.29877 5.843841,-12.70868 0.57594,-1.95286 1.324536,-4.00698 1.123403,-6.08448 -0.03822,-0.39474 -0.134811,-0.78164 -0.202216,-1.17246 -0.383204,-1.49928 -1.24864,-4.39912 -3.283789,-4.24379 -0.279236,0.0213 -0.531407,0.17696 -0.797113,0.26544 -1.313918,0.91415 -2.761805,1.66089 -3.941757,2.74245 -0.731054,0.67009 -0.368281,4.99174 -0.340937,5.67903 0.09188,2.3095 0.205698,4.61807 0.304091,6.9273 0.231495,5.47077 0.964102,10.91811 2.064213,16.27981 0.399564,1.6093 0.637757,3.3766 1.487035,4.83963 0.419976,0.72348 0.711936,0.91592 1.305259,1.46632 0.421611,0.27995 0.902703,0.69457 1.454965,0.71152 0.348136,0.0107 0.720272,-0.0187 1.029433,-0.17912 4.38147,-2.27341 4.793278,-2.68604 7.424425,-6.01472 2.780577,-3.80742 4.280902,-8.03313 5.157589,-12.61516 0.245565,-2.46172 1.037944,-5.43291 -0.330102,-7.73039 -0.167521,-0.28133 -0.423162,-0.49978 -0.634744,-0.74968 -2.230501,-0.68172 -1.085717,-0.54331 -4.977794,2.01288 -0.291994,0.19177 -0.433543,0.55314 -0.593881,0.86351 -0.777901,1.50583 -0.761561,3.01737 -0.769985,4.66834 0.257278,3.97803 0.935844,7.91558 2.345087,11.64804 1.042281,2.28645 2.368388,4.27401 4.752229,5.24627 2.680335,0.27292 5.451874,-1.84628 6.757746,-4.1344 0.259787,-0.45519 0.4504,-0.94652 0.675601,-1.41978 1.582552,-4.03988 2.562103,-8.26169 3.141858,-12.55094 0.01072,-1.73654 0.920946,-5.11177 0.167359,-6.73145 -0.0984,-0.21149 -0.301045,-0.35638 -0.451569,-0.53458 -1.938637,-0.58116 -0.700662,-0.34979 -4.492938,2.00397 -0.783732,0.48644 -1.119311,2.47293 -1.29918,3.28797 -0.509186,2.67164 -0.13326,5.406 0.155831,8.08157 0.307658,2.31166 0.83312,4.6184 2.235295,6.53428 0.288214,0.3938 0.632677,0.74318 0.949019,1.11477 1.598731,1.30223 3.489335,2.58706 5.676209,2.17524 2.392889,-0.45062 5.603952,-3.02328 7.036043,-3.93295 0.564206,-0.5909 1.180939,-1.13577 1.692611,-1.7727 0.526836,-0.6558 0.974871,-1.37292 1.411862,-2.09172 0.887203,-1.45933 2.613665,-4.23052 0.427434,-5.61965 -0.77339,-0.49141 -1.760553,-0.50886 -2.64083,-0.76329 -1.182555,-0.0506 -2.364393,-0.18131 -3.54766,-0.1518 -9.596451,0.23941 -19.286953,3.42767 -28.411847,6.08892 -8.223483,2.73964 -16.993402,4.8216 -24.803214,8.66762 -1.323123,0.89791 -3.191785,1.29648 -3.969371,2.69371 -0.34998,0.62887 1.21159,0.83348 1.910223,1.00633 1.360072,0.33651 2.777352,0.38183 4.173537,0.49888 3.244091,0.27198 7.481475,0.41911 10.709473,0.2281 1.993038,-0.11794 3.971013,-0.41894 5.956517,-0.62842 9.253019,-1.36653 18.105842,-4.74944 26.189517,-9.42103 2.220729,-1.28337 4.387476,-2.65796 6.581214,-3.98694 3.543612,-2.47579 7.136386,-5.18737 8.865769,-9.26874 0.638961,-2.04185 0.20692,-2.99672 -1.376646,-4.32469 -0.964451,-0.54771 -2.775664,-1.57033 -3.926686,-0.94607 -4.078124,2.21176 -3.367408,1.22411 -4.521147,3.44594 -0.07599,0.60988 -0.213564,1.21521 -0.227968,1.82963 -0.0412,1.75709 0.277527,4.80554 0.438023,6.46142 0.361707,3.73184 0.813874,7.44801 1.304219,11.16474 0.473313,3.39587 0.906203,6.79686 1.279961,10.20507 0,0 3.384466,-1.77616 3.384466,-1.77616 v 0 c -0.448289,-3.38061 -0.94074,-6.75497 -1.43442,-10.12922 -0.504238,-3.70994 -0.967627,-7.42119 -1.286431,-11.1527 -0.157493,-1.84341 -0.398359,-4.54529 -0.247658,-6.45504 0.04642,-0.58824 0.238284,-1.15582 0.357426,-1.73373 1.006916,-1.52706 1.066995,-1.32072 -2.160538,0.51522 -0.248181,0.14117 0.533345,-0.2248 0.817013,-0.25728 1.068318,-0.12232 2.010267,0.41185 2.906376,0.90408 1.491044,1.21813 1.78026,1.99673 1.153372,3.87397 -1.744636,3.92762 -5.239118,6.55025 -8.682961,8.94778 -1.541857,1.53746 -0.598429,0.68341 -4.655854,2.73278 -6.942315,3.5065 -14.262778,6.25655 -22.003409,7.32546 -1.968225,0.21057 -3.928711,0.51417 -5.904677,0.6317 -3.268993,0.19443 -7.290893,0.0431 -10.568241,-0.26995 -1.319967,-0.12608 -2.634113,-0.31652 -3.941041,-0.54047 -0.506227,-0.0867 -0.986533,-0.48894 -1.490569,-0.39026 -0.933763,0.18279 -1.729722,0.79332 -2.594584,1.18999 2.700856,-1.40186 5.466736,-2.48333 8.332107,-3.51759 5.551758,-2.00392 11.175844,-3.79872 16.823714,-5.51058 9.060431,-2.63218 18.52553,-5.70169 28.049468,-5.95962 1.144718,-0.031 2.28854,0.0891 3.43281,0.13365 0.807604,0.1931 1.699356,0.17173 2.422816,0.57931 2.530224,1.42547 -0.962054,5.97366 -2.009767,7.21581 -0.523941,0.62117 -1.150858,1.14761 -1.726287,1.72142 0.463053,-0.16443 1.803419,-0.75756 1.389163,-0.49327 -2.704089,1.72512 -5.045077,0.66471 -7.280179,-1.13547 -0.305078,-0.3554 -0.638339,-0.68843 -0.915234,-1.0662 -1.366536,-1.86438 -1.852231,-4.12998 -2.168295,-6.37419 -0.284718,-2.64977 -0.602736,-5.35309 -0.04675,-7.99057 0.166137,-0.67759 0.262117,-1.21043 0.554574,-1.84861 0.114179,-0.24915 0.247426,-0.49295 0.415224,-0.70965 0.1367,-0.17653 0.692722,-0.54895 0.488866,-0.45789 -4.190487,1.87199 -3.891042,1.76867 -2.553592,1.46649 0.124793,0.11488 0.299731,0.19233 0.374375,0.34464 0.675058,1.37745 -0.118235,5.0372 -0.137081,6.55415 -0.583872,4.26357 -1.531101,8.48407 -3.235978,12.45369 -0.627076,1.15951 -0.624615,1.33842 -1.415167,2.23375 -0.21382,0.24216 -0.991174,0.79501 -0.688517,0.68205 0.958223,-0.35763 1.819233,-0.93627 2.711101,-1.43693 0.190783,-0.1071 -0.391986,0.20456 -0.604973,0.25462 -0.220688,0.0519 -0.452321,0.0314 -0.678481,0.047 -2.392982,-0.78834 -3.601085,-2.73845 -4.639707,-4.92746 -1.419717,-3.67337 -2.127377,-7.56889 -2.302946,-11.50228 0.06013,-1.46991 -0.03824,-2.02007 0.41897,-3.35974 0.133739,-0.39187 0.310943,-0.77296 0.535551,-1.1208 0.179181,-0.27749 0.977717,-0.83778 0.663453,-0.73607 -4.489074,1.45286 -3.373564,1.37746 -2.026502,1.42064 0.197901,0.20994 0.440233,0.38551 0.593704,0.62981 1.318332,2.09862 0.519565,5.2205 0.293656,7.48909 -0.884873,4.53747 -2.392908,8.70433 -5.210315,12.4357 -0.48668,0.59094 -0.94174,1.20941 -1.460043,1.77283 -0.464851,0.5053 -2.066819,1.06422 -1.484489,1.42798 0.662408,0.41377 1.426972,-0.64396 2.096899,-1.04544 0.271521,-0.16273 -0.578749,0.28364 -0.892741,0.32378 -0.541507,0.0692 -0.948076,-0.28958 -1.365504,-0.54275 -0.559154,-0.48745 -0.842502,-0.65825 -1.231813,-1.31882 -0.841869,-1.42848 -1.094369,-3.16033 -1.519994,-4.72989 -1.164251,-5.30988 -1.959491,-10.71061 -2.181212,-16.14656 -0.112667,-3.18328 -0.333589,-6.40387 -0.219786,-9.59077 0.02132,-0.59745 0.03969,-1.20097 0.161912,-1.78617 0.08019,-0.38396 0.830659,-1.11545 0.439139,-1.0917 -0.994264,0.0603 -1.815528,0.82015 -2.723293,1.23022 0.423286,-0.25317 0.893022,-0.66756 1.460262,-0.48638 1.414473,0.45179 1.945788,2.6253 2.254978,3.84476 0.33777,2.42995 -0.123055,4.75185 -0.948807,7.05772 -1.538941,4.37241 -3.460085,8.57498 -5.758283,12.60409 -2.835269,5.2524 -5.616829,10.53831 -8.624011,15.69449 0,0 3.590128,-1.60553 3.590128,-1.60553 z" />
  </g>
</svg>
